<?xml version="1.0" encoding="UTF-8" standalone="no"?>
<!DOCTYPE svg PUBLIC "-//W3C//DTD SVG 1.1//EN" "http://www.w3.org/Graphics/SVG/1.1/DTD/svg11.dtd">
<!-- Created with Vectornator (http://vectornator.io/) -->
<svg height="1024.0px" stroke-miterlimit="10" style="fill-rule:nonzero;clip-rule:evenodd;stroke-linecap:round;stroke-linejoin:round;" version="1.1" viewBox="0 0 1024 1024" width="1024.0px" xml:space="preserve" xmlns="http://www.w3.org/2000/svg" xmlns:xlink="http://www.w3.org/1999/xlink">
<defs/>
<g id="Layer-1">
<g opacity="1">
<path d="M378.631 175.659C412.265 146.576 436.363 125.544 442.753 120.756C466.99 99.9824 496.41 96.5201 512 96.5201C527.59 96.5201 557.01 99.9824 581.247 120.756C587.637 125.544 611.735 146.576 644.004 175.659" fill="#02123e" fill-rule="nonzero" opacity="1" stroke="#000000" stroke-linecap="round" stroke-linejoin="round" stroke-width="39.5695"/>
<path d="M333.937 314.152L690.063 314.152M333.937 413.076L551.57 413.076" fill="#02123e" fill-rule="nonzero" opacity="1" stroke="#000000" stroke-linecap="round" stroke-linejoin="round" stroke-width="39.5695"/>
<path d="M568.881 587.736C547.237 570.444 523.95 567.852 512 567.852C507.034 567.852 480.977 568.842 454.446 588.25C436.264 601.684 221.223 769.004 105.68 858.886C94.7592 867.374 85.2428 874.793 76.7353 881.362L76.7353 927.48C76.7353 938.421 85.5791 947.265 96.5201 947.265L927.48 947.265C938.421 947.265 947.265 938.421 947.265 927.48L947.265 886.189C808.198 776.74 584.353 600.161 568.881 587.736ZM947.265 835.817L947.265 455.317L704.704 644.617C776.878 701.578 871.093 775.85 947.265 835.817ZM940.103 410.188C934.543 405.241 876.811 353.762 808.771 293.616L808.771 175.659C808.771 164.718 799.928 155.874 788.987 155.874L651.601 155.874C627.602 134.329 601.249 111.042 594.127 105.74C564.687 80.4944 530.044 76.7353 512 76.7353C493.956 76.7353 459.313 80.4944 430.843 104.948C425.363 109.083 411.592 120.974 383.458 145.309L371.251 155.874L235.013 155.874C224.072 155.874 215.229 164.718 215.229 175.659L215.229 293.616C147.189 353.762 89.4371 405.241 83.8974 410.188L254.798 543.339L254.798 195.444L769.202 195.444L769.202 543.339L940.103 410.188ZM81.365 827.646C150.097 774.188 244.451 700.786 318.05 643.648L76.7353 455.317L76.7353 831.247C78.3181 830.04 79.7624 828.892 81.365 827.646Z" fill="#02123e" fill-rule="nonzero" opacity="1" stroke="none"/>
</g>
</g>
</svg>
