<?xml version="1.0" encoding="UTF-8" standalone="no"?>
<!DOCTYPE svg PUBLIC "-//W3C//DTD SVG 1.1//EN" "http://www.w3.org/Graphics/SVG/1.1/DTD/svg11.dtd">
<!-- Created with Vectornator (http://vectornator.io/) -->
<svg height="1640.0px" stroke-miterlimit="10" style="fill-rule:nonzero;clip-rule:evenodd;stroke-linecap:round;stroke-linejoin:round;" version="1.1" viewBox="0 0 1640 1640" width="1640.0px" xml:space="preserve" xmlns="http://www.w3.org/2000/svg" xmlns:xlink="http://www.w3.org/1999/xlink">
<defs/>
<g id="Layer-3">
<g opacity="1">
<path d="M79.8515 903.413C114.654 1115.71 344.383 1047.75 344.383 1047.75C344.383 1047.75 352.038 1253.54 543.022 1297.66C734.006 1341.78 824.287 1200.01 824.287 1200.01C824.287 1200.01 931.85 1307.98 1127.81 1358.71C1407.45 1431.11 1369.85 1047.75 1369.85 1047.75C1369.85 1047.75 1517.5 1133.95 1560.71 903.413C1603.91 672.873 1369.85 560.883 1369.85 560.883C1369.85 560.883 1412.7 392.311 1290.19 305.498C1106.26 175.155 878.166 469.374 878.166 469.374C878.166 469.374 703.235 220.187 455.985 305.498C208.735 390.809 229.233 610.086 229.233 610.086C229.233 610.086 38.4482 650.849 79.8515 903.413Z" fill="#e6faff" fill-rule="nonzero" stroke="none"/>
<path d="M1202.5 244.313C1144.63 242.915 1088.9 268.555 1041.34 299.688C1031.38 306.209 1021.71 313.152 1012.22 320.344C1000.69 329.082 989.475 338.226 978.531 347.688C955.54 367.565 933.865 389.001 913.406 411.469C906.888 418.627 900.507 425.929 894.281 433.344C892.358 435.634 890.446 437.927 888.562 440.25C888.163 439.706 887.748 439.165 887.344 438.625C885.706 436.434 884.037 434.274 882.344 432.125C877.31 425.739 872.083 419.517 866.719 413.406C842.406 385.713 815.255 360.502 785.812 338.344C730.128 296.435 664.195 266.359 594.156 260.812C575.379 259.325 556.447 259.581 537.719 261.594C498.962 265.759 461.413 277.585 426.062 293.781C379.578 315.079 337.536 345.084 304.688 384.469C276.744 417.972 256.23 457.191 241.188 498C230.309 527.511 222.351 558.182 218.812 589.469C210.997 592.567 203.324 596.055 195.938 600.062C168.065 615.187 143.819 636.368 124.906 661.812C109.953 681.93 98.2866 704.39 88.7813 727.531C74.7231 761.757 65.5548 797.886 63.0313 834.844C60.9936 864.685 63.2153 894.58 67.7813 924.094C67.4622 926.498 67.4524 928.354 68.25 928.719C72.0983 951.459 78.3387 973.856 88.7188 994.531C95.0113 1007.06 102.755 1018.88 112.031 1029.41C122.725 1041.55 135.422 1051.87 149.406 1060C168.277 1070.97 189.294 1077.89 210.75 1081.59C238.018 1086.3 266.063 1086.08 293.469 1082.66C302.678 1081.51 311.83 1080 320.906 1078.06C324.05 1077.39 327.197 1076.67 330.313 1075.88C331.155 1075.66 331.973 1075.42 332.812 1075.19C332.916 1076.66 333.02 1078.12 333.156 1079.59C333.616 1084.55 334.242 1089.49 334.969 1094.41C337.981 1114.81 342.89 1134.96 349.563 1154.47C360.55 1186.6 376.596 1217.24 398.25 1243.5C413.894 1262.47 432.405 1279.04 453.156 1292.25C469.025 1302.35 486.115 1310.47 503.875 1316.66C519.345 1322.04 535.307 1325.94 551.438 1328.75C578.758 1333.5 606.718 1334.83 634.312 1331.81C668.574 1328.06 701.884 1317.5 731.969 1300.66C755.073 1287.72 776.203 1271.29 794.531 1252.19C800.589 1245.87 806.366 1239.24 811.719 1232.31C812.688 1231.06 813.593 1229.78 814.531 1228.5C814.709 1228.67 814.884 1228.86 815.062 1229.03C815.456 1229.41 815.853 1229.75 816.25 1230.12C816.871 1230.71 817.498 1231.3 818.125 1231.88C819.41 1233.05 820.698 1234.22 822 1235.38C823.644 1236.84 825.3 1238.28 826.969 1239.72C829.806 1242.16 832.668 1244.56 835.562 1246.94C854.39 1262.37 874.263 1276.54 894.75 1289.69C951.717 1326.24 1013.82 1354.85 1078.38 1375.12C1114.94 1386.61 1152.62 1396.84 1191.31 1395.19C1205.3 1394.59 1219.26 1392.41 1232.66 1388.31C1241.13 1385.72 1249.37 1382.39 1257.22 1378.28C1299.58 1356.09 1325.6 1314.18 1344.12 1271.56C1347.73 1263.27 1351.06 1254.88 1354.16 1246.38C1358.28 1235.05 1361.97 1223.55 1365.19 1211.94C1369.31 1197.06 1372.66 1181.96 1375.31 1166.75C1380 1139.84 1382.41 1112.56 1383.19 1085.25C1390.57 1087.51 1398.07 1089.35 1405.72 1090.31C1426.3 1092.89 1447.4 1090.09 1466.06 1080.81C1476.38 1075.69 1485.7 1068.81 1493.97 1060.81C1506.11 1049.06 1515.94 1035.07 1524.34 1020.47C1532.21 1006.82 1538.91 992.514 1544.87 977.938C1554.96 953.269 1562.78 927.698 1568.56 901.688C1571.9 886.66 1574.64 871.5 1576.28 856.188C1578.95 831.208 1578.75 805.898 1575.06 781.031C1572.84 766.023 1569.38 751.188 1564.72 736.75C1545.47 677.157 1506.18 625.706 1458.69 585.594C1442.71 572.097 1425.84 559.663 1408.12 548.531C1402.26 544.845 1396.31 541.29 1390.25 537.938C1388.21 536.81 1386.13 535.728 1384.06 534.656C1383.69 534.461 1383.31 534.255 1382.94 534.062C1383.12 533.124 1383.33 532.19 1383.5 531.25C1385.1 522.553 1386.33 513.794 1387.25 505C1390.06 478.277 1390.03 451.161 1386.28 424.531C1382.17 395.295 1373.42 366.543 1358.78 340.812C1333.45 296.296 1289.63 261.24 1239.59 249.125C1231.22 247.098 1222.68 245.721 1214.09 244.969C1210.22 244.629 1206.36 244.406 1202.5 244.313ZM1182.16 300.188C1191.08 300.455 1199.96 301.399 1208.75 303.031C1261.89 312.904 1308.87 348.764 1335.44 395.438C1350.48 421.866 1359.2 451.53 1362.88 481.625C1365.97 506.964 1365.69 532.791 1362.34 558.094C1362.02 560.557 1361.68 563.015 1361.28 565.469C1360.88 567.986 1360.43 570.499 1359.94 573C1359.78 573.796 1359.61 574.582 1359.44 575.375C1359.38 575.644 1359.31 575.919 1359.25 576.188C1359.24 576.208 1359.26 576.229 1359.25 576.25C1359.25 576.27 1359.25 576.293 1359.25 576.312C1359.24 576.335 1359.22 576.353 1359.22 576.375C1359.21 576.395 1359.22 576.417 1359.22 576.438C1359.21 576.469 1359.2 576.499 1359.19 576.531C1359.18 576.561 1359.15 576.617 1359.16 576.594C1358.93 577.55 1358.68 578.504 1358.5 579.469C1358.24 580.822 1358.05 582.195 1357.88 583.562C1357.79 584.245 1357.76 584.937 1357.75 585.625C1357.74 586.473 1357.77 587.613 1358.31 588.344C1358.81 589.016 1360.29 589.464 1360.91 589.781C1362.52 590.607 1364.12 591.449 1365.72 592.312C1371.29 595.33 1376.75 598.528 1382.16 601.844C1398.96 612.154 1415.06 623.636 1430.31 636.125C1480.52 677.247 1522.46 730.438 1541.94 793C1546.01 806.088 1549.08 819.504 1551.09 833.062C1552.97 845.708 1553.93 858.466 1553.97 871.25C1554.04 892.272 1551.45 913.088 1547.06 933.625C1545.45 941.184 1543.63 948.703 1541.47 956.125C1539.77 961.939 1537.91 967.762 1535.47 973.312C1529.16 987.665 1519.13 1000.79 1507.44 1011.12C1502.01 1015.93 1496.09 1020.16 1489.75 1023.69C1482.71 1027.6 1475.17 1030.61 1467.38 1032.62C1446.11 1038.12 1423.53 1036.06 1402.78 1029.38C1397.9 1027.8 1393.09 1025.95 1388.41 1023.84C1386.88 1023.16 1385.37 1022.44 1383.88 1021.69C1383.29 1021.39 1382.7 1021.09 1382.12 1020.78C1381.39 1020.39 1380.66 1019.7 1379.78 1020.22C1379.38 1020.45 1378.94 1020.69 1378.62 1021.03C1377.58 1022.14 1376.5 1023.23 1375.72 1024.53C1372.99 1029.08 1370.29 1033.69 1368.12 1038.53C1365.27 1044.9 1362.95 1051.52 1360.69 1058.12C1359.74 1060.89 1359.16 1063.77 1358.5 1066.62C1358.26 1067.68 1358.15 1068.74 1358 1069.81C1357.58 1072.82 1358.1 1075.88 1358.31 1078.87C1358.58 1082.74 1358.8 1086.6 1358.97 1090.47C1359.56 1103.86 1359.67 1117.28 1359.34 1130.69C1358.66 1159.04 1356.01 1187.39 1350.62 1215.25C1349.09 1223.2 1347.25 1231.11 1345.06 1238.91C1342.82 1246.88 1340.21 1254.77 1336.56 1262.22C1326.24 1283.28 1309.99 1301.85 1290.72 1315.16C1284.72 1319.3 1278.4 1322.95 1271.81 1326.06C1229.66 1345.99 1181.09 1342.35 1137.12 1330.81C1058.15 1310.09 982.196 1277.49 913.625 1233.06C894.343 1220.57 875.629 1207.15 857.844 1192.59C852.552 1188.26 847.327 1183.83 842.25 1179.25C840.54 1177.71 838.855 1176.15 837.188 1174.56C836.702 1174.1 835.872 1172.94 835.156 1172.69C834.037 1172.29 832.723 1173.8 832.125 1174.47C831.787 1174.85 831.466 1175.22 831.156 1175.62C830.715 1176.2 830.289 1176.81 829.875 1177.41C829.679 1177.69 829.467 1177.96 829.281 1178.25C829.299 1178.22 829.268 1178.32 829.25 1178.34C829.23 1178.38 829.208 1178.41 829.188 1178.44C829.172 1178.46 829.163 1178.49 829.156 1178.5C829.14 1178.52 829.11 1178.54 829.094 1178.56C829.078 1178.59 829.047 1178.6 829.031 1178.62C828.921 1178.79 828.831 1178.96 828.719 1179.12C828.36 1179.64 827.993 1180.15 827.625 1180.66C826.624 1182.03 825.58 1183.38 824.531 1184.72C823.676 1185.81 822.818 1186.87 821.938 1187.94C809.204 1203.43 794.304 1217.22 778.188 1229.12C754.328 1246.76 727.415 1260.23 698.938 1268.56C677.576 1274.81 655.396 1278.14 633.156 1278.78C611.946 1279.39 590.711 1277.57 569.844 1273.78C551.105 1270.38 532.617 1265.45 514.906 1258.41C487.53 1247.52 462.266 1231.69 440.812 1211.47C415.457 1187.57 395.882 1158.08 381.938 1126.25C371.635 1102.73 364.277 1077.9 359.781 1052.62C358.43 1045.03 357.31 1037.37 356.594 1029.69C356.525 1028.95 356.467 1028.21 356.406 1027.47C356.358 1026.88 356.323 1026.31 356.281 1025.72C356.208 1024.67 356.254 1021.71 355.469 1020.94C354.786 1020.27 352.39 1021.3 351.875 1021.44C351.569 1021.52 351.276 1021.58 350.969 1021.66C350.437 1021.79 349.907 1021.93 349.375 1022.06C343.631 1023.5 337.823 1024.72 332 1025.78C308.428 1030.09 284.286 1031.92 260.344 1030.66C220.811 1028.56 180.995 1017.36 150.188 991.625C143.316 985.884 136.968 979.514 131.25 972.625C122.892 962.555 115.888 951.396 110.188 939.625C101.271 921.211 95.7221 901.456 92.0938 881.375C92.1627 880.042 91.9802 879.16 91.5625 878.719C91.5265 878.509 91.473 878.303 91.4375 878.094C91.4039 878.078 91.3478 878.105 91.3125 878.094C86.0593 844.6 83.7482 810.463 87.625 776.688C88.6053 768.147 89.9851 759.624 91.9375 751.25C93.4765 744.649 95.2639 738.029 98.1563 731.875C102.006 723.683 107.065 715.998 112.5 708.781C123.466 694.219 136.655 681.362 151.281 670.5C165.145 660.204 180.336 651.619 196.312 645.062C201.517 642.927 206.802 641.003 212.188 639.375C213.845 638.874 215.509 638.427 217.188 638C218.081 637.773 219.101 637.683 219.875 637.125C221.011 636.306 222.035 635.091 222.812 633.969C223.886 632.419 224.973 630.874 225.875 629.219C227.858 625.583 229.81 621.889 231.469 618.094C233.622 613.166 235.512 608.141 237.281 603.062C238.376 599.92 239.205 596.693 240.031 593.469C240.407 592.004 240.66 590.492 240.906 589C241.401 586.004 240.986 583.325 240.875 580.344C240.771 577.569 240.761 574.777 240.781 572C240.836 564.381 241.252 556.769 242 549.188C243.834 530.605 247.531 512.196 253.656 494.562C253.88 493.963 254.094 493.352 254.313 492.75C254.349 492.65 254.18 493.162 254.219 493.062C254.778 491.636 255.099 490.766 255.625 489.438C255.577 489.551 255.827 488.979 255.781 489.094C255.984 488.617 256.176 488.135 256.375 487.656C256.361 487.688 256.385 487.613 256.406 487.562C256.433 487.498 256.473 487.439 256.5 487.375C263.471 471.766 272.517 457.253 282.906 443.688C297.955 424.038 315.778 406.574 335.312 391.406C360.568 371.795 388.706 356.108 418.156 343.75C439.318 334.87 461.15 327.47 483.594 322.594C514.978 315.776 547.356 313.84 579.312 317.094C658.756 325.182 731.263 364.535 790.938 416.125C811.689 434.066 831.142 453.597 848.906 474.5C853.767 480.22 858.494 486.051 863.031 492.031C864.001 493.31 864.964 494.576 865.906 495.875C866.266 496.372 866.72 497.308 867.469 497.281C868.263 497.253 868.995 496.607 869.531 496.094C870.938 494.747 871.924 493.304 873.125 491.812C877.66 486.181 882.34 480.666 887.094 475.219C905.033 454.661 924.088 434.987 944.156 416.5C979.869 383.601 1018.8 353.49 1062.12 331.25C1091.26 316.295 1122.72 304.923 1155.41 301.313C1164.28 300.332 1173.23 299.92 1182.16 300.188Z" fill="#123ba8" stroke="none"/>
</g>
</g>
<g id="Layer-1">
<g opacity="1">
<g opacity="1">
<path d="M697.271 843.256C695.394 843.2 693.512 843.216 691.61 843.3C687.08 843.5 682.569 844.131 678.16 845.19C673.13 846.399 668.236 848.163 663.591 850.438C656.958 853.687 650.861 857.955 645.393 862.91C635.619 871.767 627.921 882.701 621.665 894.254C617.386 902.155 613.75 910.392 610.42 918.732C605.784 930.342 601.844 942.212 598.469 954.248C590.19 983.772 585.769 1014.45 585.508 1045.12C585.331 1065.86 587.012 1086.67 591.06 1107.03C592.61 1114.83 594.53 1122.56 596.839 1130.17C598.848 1136.78 601.087 1143.35 604.064 1149.6C609.548 1161.11 617.488 1171.65 628.097 1178.88C631.144 1180.96 634.364 1182.75 637.744 1184.23C642.252 1186.2 647.006 1187.61 651.857 1188.43C658.37 1189.53 665.037 1189.62 671.598 1188.92C681.527 1187.86 691.182 1185.02 700.421 1181.29C722.469 1172.4 740.916 1157.41 759.665 1143.17C761.24 1143.62 764.603 1136.7 767.173 1127.7C769.743 1118.7 770.551 1111.05 768.976 1110.6C757.243 1119.01 745.868 1128.02 733.547 1135.56C724.347 1141.2 714.626 1145.93 704.409 1149.42C696.137 1152.24 687.5 1154.17 678.758 1154.65C672.431 1155 666.054 1154.57 659.875 1153.14C655.216 1152.07 650.688 1150.45 646.425 1148.28C643.214 1146.64 640.152 1144.7 637.299 1142.5C619.561 1128.81 611.581 1106.99 606.444 1085.94C603.104 1072.25 600.836 1058.35 599.621 1044.31C598.67 1033.33 598.343 1022.29 598.589 1011.28C598.772 1003.06 599.236 994.831 600.121 986.657C603.684 953.707 611.513 917.568 637.668 894.787C641.176 891.731 644.955 888.982 648.967 886.627C653.81 883.785 658.989 881.522 664.373 879.924C671.863 877.701 679.714 876.807 687.514 877.143C698.194 877.603 708.68 880.344 718.456 884.607C733.626 891.221 746.869 901.332 758.514 912.974C760.114 913.535 764.009 906.574 767.216 897.427C770.423 888.279 771.729 880.409 770.128 879.848C750.717 860.287 725.425 844.096 697.271 843.256Z" fill="#3264eb" stroke="none"/>
</g>
<g opacity="1">
<path d="M848.048 972.115C837.905 972.11 827.66 974.549 819.341 980.487C813.505 984.652 808.885 990.135 803.674 995.001C800.83 997.657 797.791 1000.03 794.449 1002.03C793.183 1001.58 790.082 1007.08 787.519 1014.32C784.957 1021.55 783.903 1027.78 785.169 1028.23C788.829 1026.2 792.141 1023.75 795.225 1020.92C797.734 1018.63 800.098 1016.17 802.532 1013.79C802.517 1013.87 802.497 1013.94 802.482 1014.02C801.201 1020.47 800.825 1027.08 800.825 1033.65C800.825 1041.45 801.381 1049.24 802.261 1056.98C804.419 1075.97 808.398 1095.08 815.206 1112.99C817.602 1119.29 820.378 1125.48 823.91 1131.24C826.144 1134.88 828.701 1138.37 831.788 1141.34C833.746 1143.22 835.931 1144.89 838.379 1146.09C839.876 1146.82 841.461 1147.37 843.103 1147.67C849.772 1148.89 855.525 1145.63 860.777 1141.91C864.568 1139.23 868.178 1136.3 871.554 1133.11C883.813 1121.53 892.379 1106.79 898.653 1091.26C907.549 1069.23 911.792 1045.85 905.605 1022.48C899.894 1000.91 885.241 980.51 863 974.117C859.54 973.122 855.974 972.508 852.383 972.265C850.944 972.167 849.497 972.116 848.048 972.115ZM837.476 999.729C843.002 999.746 848.473 1000.5 853.753 1002.24C880.132 1010.89 894.941 1039.3 896.413 1065.66C896.84 1073.31 896.32 1081.2 894.134 1088.57C893.94 1089.22 893.054 1090.66 892.582 1091.45C891.187 1093.8 889.602 1096.04 887.909 1098.18C883.338 1103.96 877.956 1109.04 872.064 1113.45C869.677 1115.24 867.225 1117.07 864.552 1118.42C863.019 1119.19 861.392 1119.79 859.707 1120.13C847.6 1122.58 838.678 1110.62 833.528 1101.42C832.634 1099.82 831.795 1098.19 830.995 1096.54C826.482 1087.25 823.245 1077.36 820.6 1067.39C817.251 1054.76 814.914 1041.85 813.57 1028.86C812.86 1021.99 812.425 1015.07 812.495 1008.17C812.503 1007.37 812.528 1006.57 812.55 1005.77C819.366 1001.77 827.149 1000.04 835.103 999.768C835.894 999.741 836.686 999.727 837.476 999.729Z" fill="#3264eb" stroke="none"/>
</g>
<g opacity="1">
<path d="M1032.11 898.072C1030.98 897.576 1027.77 902.403 1024.94 908.853C1022.11 915.302 1020.72 920.93 1021.85 921.426C1021.79 939.047 1022.51 956.696 1023.1 974.306C1023.99 1000.81 1025.08 1027.32 1026.55 1053.8C1027.53 1071.54 1028.59 1089.29 1030.15 1107C1031.13 1118.03 1032.02 1129.19 1034.31 1140.04C1035.53 1140.53 1038.75 1135.28 1041.51 1128.31C1044.27 1121.34 1045.53 1115.29 1044.31 1114.81C1042.21 1101.46 1041.16 1087.93 1040.12 1074.46C1038.64 1055.35 1037.55 1036.2 1036.53 1017.06C1035.26 993.01 1034.22 968.951 1033.35 944.886C1032.79 929.294 1032.11 913.675 1032.11 898.072Z" fill="#3264eb" stroke="none"/>
</g>
<g opacity="1">
<path d="M989.373 979.791C981.265 979.542 973.177 981.664 966.499 986.676C958.142 992.948 952.654 1002.38 948.441 1011.75C945.358 1018.6 942.847 1025.72 940.792 1032.95C933.772 1057.64 932.522 1085.57 941.355 1110.02C946.385 1123.93 955.925 1138.63 971.683 1141.17C977.069 1142.04 982.836 1141.51 988.164 1140.47C992.405 1139.64 996.532 1138.27 1000.43 1136.4C1009.77 1131.92 1017.09 1124.67 1024.65 1117.77C1027.05 1115.58 1029.51 1113.48 1032 1111.4C1033.28 1111.75 1035.98 1106.12 1038.04 1098.82C1040.09 1091.52 1040.72 1085.3 1039.44 1084.94C1038.19 1085.91 1036.91 1086.84 1035.69 1087.83C1031.31 1091.37 1027.31 1095.35 1023.02 1098.99C1017.31 1103.83 1011.05 1108.03 1003.92 1110.47C999.149 1112.1 994.154 1112.97 989.125 1113.22C985.872 1113.39 982.628 1113.34 979.435 1112.63C970.046 1110.55 962.761 1103.65 957.79 1095.71C949.949 1083.18 946.669 1067.88 945.914 1053.24C945.6 1047.16 945.76 1041.04 946.518 1035C946.842 1032.42 947.291 1029.88 947.929 1027.36C949.223 1024.37 951.16 1021.61 953.279 1019.16C956.601 1015.31 960.706 1012.15 965.382 1010.13C970.493 1007.92 975.979 1007.29 981.492 1007.6C989.574 1008.05 997.333 1010.59 1004 1015.2C1013.15 1021.53 1019.58 1030.81 1026.35 1039.45C1027.65 1039.91 1030.85 1034.27 1033.49 1026.84C1036.13 1019.42 1037.23 1013.03 1035.93 1012.56C1028.86 1003.44 1022.14 993.61 1012.36 987.136C1005.61 982.664 997.482 980.041 989.373 979.791Z" fill="#3264eb" stroke="none"/>
</g>
<g opacity="1">
<path d="M1142.64 969.543C1139.73 969.571 1136.83 969.903 1134.03 970.45C1119.01 973.386 1105.83 982.866 1096.94 995.141C1090.71 1003.75 1086.38 1013.62 1083 1023.65C1080.23 1031.86 1078.1 1040.37 1077.13 1048.99C1076.03 1058.7 1076.38 1068.55 1077.66 1078.21C1079.12 1089.16 1081.81 1100.06 1086.21 1110.22C1092.69 1125.18 1103.99 1139.89 1121.45 1141.4C1124.85 1141.69 1128.25 1141.56 1131.5 1140.45C1134.2 1139.52 1136.73 1138.08 1139.01 1136.37C1149.91 1128.19 1156.34 1114.08 1160.89 1101.7C1166.23 1087.18 1169.49 1072.07 1170.66 1056.66C1169.64 1056.17 1166.57 1060.48 1163.79 1066.27C1161.01 1072.06 1159.58 1077.16 1160.6 1077.64C1160.22 1081.8 1159.75 1085.95 1158.97 1090.05C1158.69 1091.56 1158.25 1094.09 1157.76 1095.12C1154.08 1103.02 1147.27 1110.71 1138.5 1112.83C1135.22 1113.62 1131.67 1113.44 1128.37 1112.91C1125.11 1112.39 1121.96 1111.36 1119.01 1109.87C1115.07 1107.88 1111.57 1105.12 1108.54 1101.93C1102.43 1095.5 1098.16 1087.49 1094.98 1079.28C1094.29 1077.5 1093.66 1075.7 1093.07 1073.89C1104.86 1077.79 1117.41 1078.89 1129.55 1074.68C1132.66 1073.6 1135.67 1072.19 1138.48 1070.46C1141.98 1068.31 1145.19 1065.68 1148.03 1062.69C1154.7 1055.65 1159.23 1046.86 1162.79 1037.92C1164.37 1033.96 1165.77 1029.93 1166.99 1025.85C1167.95 1022.63 1168.81 1019.38 1169.51 1016.1C1172.41 1002.53 1173.09 984.332 1160.8 974.908C1159.52 973.932 1158.15 973.087 1156.7 972.393C1152.34 970.301 1147.49 969.497 1142.64 969.543ZM1133.52 997.612C1137.42 997.55 1141.35 998.035 1145.03 999.356C1154.22 1002.66 1159.34 1010.72 1160.55 1020.14C1160.84 1022.36 1160.91 1024.6 1160.77 1026.83C1160.73 1027.48 1160.62 1028.12 1160.53 1028.77C1160.51 1028.81 1160.49 1028.86 1160.46 1028.9C1160.04 1029.65 1159.58 1030.38 1159.1 1031.09C1157.87 1032.93 1156.47 1034.66 1154.95 1036.28C1150.27 1041.22 1144.4 1044.96 1137.99 1047.21C1130.98 1049.67 1123.43 1050.34 1116.06 1049.6C1105.81 1048.57 1096.18 1044.89 1087.17 1040.05C1087.01 1035.2 1087.24 1030.35 1087.99 1025.56C1090.08 1021.47 1093.05 1017.77 1096.23 1014.51C1105.04 1005.48 1117 999.138 1129.63 997.85C1130.92 997.719 1132.21 997.633 1133.52 997.612Z" fill="#3264eb" stroke="none"/>
</g>
<g opacity="1">
<path d="M1246.56 969.833C1243.19 969.741 1239.83 970.204 1236.59 971.471C1222.03 977.16 1214.04 993.826 1209.32 1007.59C1208.17 1010.94 1207.16 1014.33 1206.31 1017.76C1204.96 1023.2 1203.96 1028.83 1204.13 1034.46C1204.21 1036.97 1204.56 1039.48 1205.23 1041.9C1207.94 1051.64 1215.53 1057.04 1224.41 1060.81C1233.54 1064.69 1243.35 1066.75 1252.68 1070.07C1254 1070.54 1255.37 1070.94 1256.67 1071.49C1257.91 1072 1259.11 1072.68 1260.32 1073.27C1262.13 1074.15 1263.95 1074.97 1265.65 1076.06C1270.53 1079.19 1274.64 1083.44 1276.98 1088.79C1278.47 1092.19 1279.25 1095.94 1279.94 1099.57C1280.37 1101.85 1280.7 1104.16 1280.87 1106.47C1274.7 1111.52 1266.2 1113.06 1258.44 1113.25C1239.53 1113.71 1222.15 1103.26 1213.83 1086.23C1210.82 1080.09 1209.23 1073.43 1208.81 1066.62C1207.65 1066.13 1204.45 1071.09 1201.65 1077.71C1198.85 1084.32 1197.52 1090.08 1198.68 1090.57C1198.93 1097.3 1200.04 1103.88 1202.54 1110.16C1208.44 1124.98 1221.21 1136.54 1236.82 1140.22C1242.43 1141.55 1248.23 1141.78 1253.96 1141.22C1260.71 1140.56 1267.52 1138.62 1272.9 1134.33C1278.6 1129.79 1282.04 1123.03 1284.72 1116.4C1287.81 1108.75 1290.22 1100.69 1291.22 1092.49C1291.88 1087.06 1291.71 1081.57 1290.92 1076.16C1290.04 1070.18 1288.78 1063.81 1285.72 1058.53C1282.86 1053.6 1278.47 1049.7 1273.53 1046.93C1272.05 1046.1 1270.44 1045.43 1268.9 1044.69C1257.16 1039.02 1243.93 1037.25 1232.01 1031.99C1225.44 1029.09 1219.21 1024.63 1216.35 1017.81C1215.42 1015.59 1214.84 1013.2 1214.67 1010.8C1214.65 1010.55 1214.64 1010.29 1214.63 1010.04C1215.83 1008.36 1217.17 1006.79 1218.65 1005.35C1223.34 1000.79 1229.49 997.548 1236.13 997.407C1248.75 997.141 1262.88 1004.17 1270.08 1014.57C1272.23 1017.68 1273.86 1021.26 1274.35 1025.03C1274.47 1025.96 1274.55 1027.08 1274.4 1027.85C1275.24 1028.32 1278.09 1024.81 1280.76 1020.01C1283.43 1015.21 1284.92 1010.94 1284.08 1010.47C1285.03 1004.44 1285.03 998.531 1282.6 992.841C1277.54 980.953 1264.99 972.98 1252.66 970.544C1250.63 970.144 1248.59 969.889 1246.56 969.833Z" fill="#3264eb" stroke="none"/>
</g>
</g>
<g opacity="1">
<g opacity="1">
<path d="M390.143 451.038C388.266 450.982 386.373 450.998 384.472 451.082C379.941 451.282 375.431 451.913 371.022 452.972C365.991 454.181 361.098 455.944 356.452 458.22C349.819 461.468 343.723 465.737 338.254 470.692C328.48 479.549 320.793 490.483 314.537 502.036C310.259 509.937 306.612 518.185 303.282 526.525C298.646 538.135 294.706 549.994 291.331 562.03C283.052 591.554 278.63 622.235 278.369 652.9C278.193 673.646 279.873 694.455 283.921 714.817C285.471 722.615 287.392 730.34 289.701 737.947C291.709 744.563 293.949 751.134 296.926 757.384C302.409 768.894 310.35 779.429 320.958 786.663C324.006 788.742 327.225 790.531 330.606 792.009C335.113 793.979 339.868 795.393 344.719 796.213C351.231 797.315 357.899 797.404 364.459 796.702C374.389 795.641 384.055 792.801 393.294 789.075C415.341 780.185 433.778 765.193 452.527 750.952C454.101 751.402 457.464 744.478 460.034 735.481C462.604 726.484 463.412 718.83 461.838 718.38C450.105 726.788 438.73 735.797 426.409 743.347C417.208 748.984 407.488 753.711 397.27 757.199C388.998 760.023 380.372 761.955 371.63 762.436C365.303 762.784 358.916 762.354 352.737 760.926C348.078 759.848 343.549 758.231 339.286 756.058C336.076 754.422 333.013 752.48 330.16 750.278C312.422 736.588 304.443 714.774 299.305 693.718C295.966 680.033 293.698 666.131 292.482 652.096C291.532 641.115 291.204 630.076 291.45 619.057C291.633 610.839 292.109 602.613 292.993 594.438C296.557 561.489 304.375 525.349 330.53 502.568C334.037 499.513 337.816 496.764 341.829 494.409C346.671 491.567 351.851 489.304 357.235 487.706C364.724 485.482 372.576 484.589 380.376 484.925C391.055 485.385 401.542 488.126 411.318 492.388C426.488 499.003 439.73 509.114 451.375 520.756C452.976 521.317 456.882 514.357 460.088 505.209C463.295 496.061 464.59 488.191 462.989 487.63C443.578 468.068 418.297 451.878 390.143 451.038Z" fill="#3264eb" stroke="none"/>
</g>
<g opacity="1">
<path d="M540.954 603.662C535.879 603.54 531.366 604.409 526.729 607.029C518.634 611.604 512.858 619.446 508.285 627.343C502.523 637.293 498.372 648.237 495.019 659.203C490.568 673.765 487.795 688.786 486.732 703.974C486.034 713.954 485.936 724.04 487.352 733.965C489.755 750.814 497.36 769.098 515.08 774.414C517.539 775.152 520.128 775.622 522.699 775.68C525.671 775.748 528.6 775.367 531.449 774.511C536.334 773.042 540.761 770.361 544.763 767.242C551.857 761.715 557.727 754.795 563.46 747.92C567.055 743.61 570.552 738.877 575.013 735.409C576.296 735.775 579.031 730.127 581.123 722.795C583.215 715.462 583.872 709.222 582.588 708.856C578.03 712.107 574.474 716.606 570.875 720.839C562.307 730.915 552.279 743.438 538.82 746.724C528.544 749.233 517.705 744.991 510.554 737.51C506.116 732.868 503.027 727.087 500.957 721.044C498.977 715.264 497.88 709.212 497.32 703.139C496.831 697.831 496.78 692.502 496.975 687.179C497.224 680.409 497.82 673.639 498.947 666.957C499.673 662.658 500.477 658.203 502.153 654.149C504.507 648.456 508.182 643.144 512.682 638.954C516.844 635.079 522.005 632.16 527.715 631.476C532.059 630.955 536.701 631.495 540.97 632.349C546.676 633.49 552.118 635.714 556.924 639.003C562.401 642.75 566.85 647.731 570.778 653.034C573.743 657.038 576.412 661.251 579.496 665.168C580.795 665.631 583.991 659.99 586.635 652.565C589.279 645.14 590.37 638.744 589.071 638.281C586.007 634.343 583.357 630.106 580.412 626.082C576.69 620.997 572.507 616.184 567.415 612.423C560.337 607.193 551.91 604.416 543.168 603.77C542.418 603.714 541.679 603.679 540.954 603.662Z" fill="#3264eb" stroke="none"/>
</g>
<g opacity="1">
<path d="M594.93 608.585C593.647 608.725 590.667 613.295 588.011 619.282C585.178 625.669 583.784 631.245 584.902 631.741C584.82 637.203 584.178 642.664 583.569 648.087C582.741 655.467 581.794 662.833 580.846 670.198C578.856 685.663 576.812 701.126 575.14 716.629C573.886 728.258 572.743 739.937 572.469 751.637C572.381 755.409 572.382 759.191 572.652 762.956C572.88 766.131 573.179 769.585 574.549 772.509C575.027 773.528 575.735 774.599 576.833 775.017C577.702 775.348 578.746 775.188 579.629 775.023C580.548 774.85 581.442 774.555 582.294 774.171C583.536 773.611 584.691 772.869 585.764 772.034C587.307 770.831 588.692 769.433 589.965 767.952C594.044 763.212 597.163 757.671 599.931 752.092C603.371 745.16 606.274 737.957 608.695 730.608C608.746 730.372 607.694 729.945 606.343 729.652C604.992 729.359 603.855 729.311 603.803 729.547C603.876 729.326 603.977 729.097 604.023 728.868C604.041 728.777 603.939 729.038 603.903 729.124C603.879 729.179 603.858 729.231 603.835 729.286C603.736 729.524 603.638 729.764 603.537 730.002C603.294 730.576 603.047 731.148 602.779 731.711C601.951 733.454 601.055 735.163 600.041 736.806C597.779 740.47 594.823 744.292 590.786 746.087C590.059 746.411 589.291 746.655 588.507 746.798C585.955 747.262 585.061 746.372 584.295 743.997C582.837 739.476 583.005 733.947 583.073 729.255C583.198 720.567 583.939 711.88 584.771 703.235C586.645 683.755 589.258 664.355 591.669 644.936C592.565 637.719 593.449 630.501 594.172 623.264C594.659 618.397 595.108 613.511 595.165 608.616C595.095 608.585 595.016 608.576 594.93 608.585Z" fill="#3264eb" stroke="none"/>
</g>
<g opacity="1">
<path d="M700.304 615.266C696.39 615.965 692.559 617.251 688.746 618.367C683.079 620.025 677.411 621.684 671.695 623.167C657.524 626.845 643.201 629.365 628.606 630.563C627.287 630.142 624.267 635.911 621.859 643.449C619.452 650.987 618.568 657.44 619.887 657.861C628.457 657.389 636.985 656.554 645.453 655.134C654.226 653.663 662.89 651.554 671.438 649.101C675.303 647.992 679.143 646.792 682.962 645.536C686.002 644.535 689.053 643.529 691.979 642.23C693.282 642.632 696.202 636.921 698.5 629.476C700.799 622.03 701.607 615.668 700.304 615.266Z" fill="#3264eb" stroke="none"/>
</g>
<g opacity="1">
<path d="M672.485 528.247C671.373 527.752 668.174 532.496 665.342 538.849C662.51 545.202 661.113 550.759 662.225 551.254C662.185 553.537 661.745 555.845 661.401 558.094C660.831 561.821 660.195 565.54 659.559 569.256C657.77 579.71 655.931 590.153 654.211 600.619C649.699 628.076 645.755 655.709 644.138 683.507C643.046 702.279 642.655 721.552 646.198 740.107C647.968 749.38 650.812 759.279 657.157 766.534C659.236 768.912 661.721 770.947 664.557 772.356C672.851 776.48 683.253 775.287 690.043 768.913C695.843 763.468 699.244 755.611 702.013 748.323C705.978 737.888 709.161 726.169 709.242 714.885C708.134 714.394 704.965 719.126 702.161 725.456C699.356 731.786 697.975 737.316 699.083 737.807C699.079 737.672 699.075 738.077 699.067 738.211C699.055 738.424 699.037 738.61 699.021 738.825C698.988 739.261 698.951 739.696 698.904 740.131C698.903 740.146 698.898 740.162 698.896 740.177C698.43 740.735 697.954 741.292 697.42 741.786C693.876 745.063 689.25 746.56 684.478 746.566C682.261 746.569 680.031 746.294 677.895 745.696C668.045 742.939 662.527 733.627 659.45 724.507C656.777 716.584 655.538 708.197 654.825 699.891C653.928 689.436 653.914 678.915 654.312 668.435C655.571 635.325 660.688 602.424 666.212 569.8C667.644 561.343 669.145 552.898 670.511 544.43C671.371 539.095 672.381 533.664 672.485 528.247Z" fill="#3264eb" stroke="none"/>
</g>
<g opacity="1">
<path d="M768.797 528.138C767.675 527.642 764.468 532.441 761.635 538.854C758.802 545.267 757.413 550.867 758.535 551.363C758.465 558.287 757.94 565.217 757.543 572.127C756.916 583.033 756.255 593.939 755.619 604.845C753.721 637.42 751.951 670.015 751.134 702.638C750.766 717.356 750.557 732.093 751.057 746.811C751.235 752.027 751.506 757.25 752.034 762.443C752.409 766.122 752.926 769.765 753.904 773.336C755.14 773.816 758.37 768.481 761.112 761.42C763.854 754.359 765.071 748.245 763.835 747.765C761.892 738.723 761.749 729.271 761.535 720.055C761.207 705.868 761.453 691.673 761.805 677.49C762.613 644.897 764.366 612.323 766.174 579.773C766.762 569.184 767.373 558.592 767.944 548.001C768.3 541.39 768.751 534.762 768.797 528.138Z" fill="#3264eb" stroke="none"/>
</g>
<g opacity="1">
<path d="M802.557 602.4C794.965 602.361 788.477 609.455 784.09 615.33C783.317 616.364 782.567 617.411 781.844 618.481C780.815 620.004 779.826 621.56 778.876 623.133C774.754 629.957 771.257 637.16 768.064 644.458C763.972 653.812 760.391 663.389 757.197 673.085C754.729 680.577 752.48 688.142 750.552 695.791C749.199 701.162 747.967 706.588 747.21 712.079C748.118 712.557 751.068 708.731 753.799 703.538C756.53 698.345 758.005 693.751 757.096 693.273C757.538 690.064 758.408 686.898 759.26 683.781C760.296 679.994 761.466 676.244 762.734 672.529C766.608 661.182 771.33 649.599 778.699 640.033C783.388 633.946 790.446 627.891 798.512 631.72C799.884 632.371 801.141 633.242 802.279 634.243C804.13 635.871 805.687 637.819 807.048 639.866C810.541 645.12 812.91 651.099 814.876 657.065C817.508 665.051 819.401 673.268 820.96 681.525C825.853 707.447 827.86 734 828.368 760.352C829.489 760.843 832.673 756.051 835.478 749.647C838.283 743.243 839.648 737.652 838.527 737.161C838.75 720.905 837.726 704.592 836.11 688.423C834.411 671.412 832.012 654.314 827.518 637.793C825.116 628.96 822.143 619.859 817.005 612.195C814.699 608.755 811.791 605.457 807.979 603.669C806.121 602.798 804.31 602.409 802.557 602.4Z" fill="#3264eb" stroke="none"/>
</g>
<g opacity="1">
<path d="M968.354 602.371C968.179 602.432 968.02 602.559 967.877 602.729C967.13 603.611 966.386 604.524 965.867 605.556C964.477 608.32 963.255 611.169 962.17 614.065C961.289 616.417 960.655 618.853 959.981 621.271C959.689 622.318 959.492 623.393 959.274 624.457C958.681 627.354 958.793 630.112 958.788 633.077C958.783 636.377 958.793 639.673 958.805 642.974C958.85 654.394 958.955 665.82 959.001 677.24C959.055 690.335 959.012 703.437 958.848 716.54C958.223 720.243 957.644 724.127 956.25 727.605C953.376 734.775 947.054 741.292 940.024 744.495C937.256 745.756 934.287 746.568 931.268 746.931C928.355 747.281 925.328 747.3 922.427 746.812C919.954 746.395 917.551 745.724 915.272 744.665C903.348 739.129 897.705 725.692 894.6 713.721C891.997 703.683 890.854 693.341 890.188 683.015C889.256 668.559 889.627 654.007 890.341 639.55C890.712 632.058 891.226 624.578 891.644 617.089C891.886 612.758 892.288 608.299 891.798 603.972C890.592 603.48 887.335 608.665 884.524 615.556C881.712 622.447 880.413 628.437 881.619 628.929C882.013 632.288 881.598 635.808 881.406 639.167C881.116 644.275 880.768 649.382 880.469 654.49C879.586 669.596 879.024 684.74 879.515 699.871C879.931 712.653 881.008 725.549 883.987 738.013C886.601 748.951 890.843 760.77 899.668 768.276C902.347 770.554 905.42 772.343 908.756 773.463C917.938 776.547 928.539 774.894 936.498 769.46C941.52 766.031 945.514 761.307 948.797 756.232C952.732 750.151 955.857 743.538 958.482 736.735C958.099 750.103 957.478 763.461 956.463 776.794C955.587 788.307 954.423 799.809 952.596 811.213C951.511 817.987 950.387 824.976 948.141 831.485C947.361 833.749 946.126 835.868 944.666 837.813C941.822 841.603 937.954 844.711 933.236 845.709C929.66 846.466 925.76 846.217 922.154 845.846C911.223 844.719 901.266 839.684 894.08 831.349C888.344 824.695 884.519 816.557 882.062 808.172C881.22 805.296 880.527 802.382 879.992 799.433C879.803 798.386 879.641 797.329 879.507 796.273C879.468 795.963 879.429 795.656 879.396 795.345C879.383 795.22 879.374 795.095 879.362 794.97C879.359 794.941 879.353 794.847 879.354 794.876C878.183 794.387 874.96 799.419 872.165 806.111C869.369 812.803 868.055 818.62 869.226 819.109C869.539 823.718 870.434 828.339 871.594 832.797C875.748 848.761 885.012 864.45 900.886 870.879C904.348 872.281 907.987 873.209 911.686 873.706C918.044 874.561 924.841 874.789 930.476 871.313C935.759 868.054 939.551 862.705 942.588 857.429C946 851.503 948.703 845.163 951.08 838.759C959.158 816.993 963.112 793.937 965.543 770.925C968.218 745.594 969.08 720.09 969.469 694.633C969.922 691.866 970.34 689.1 970.619 686.303C971.937 673.134 971.831 659.784 971.505 646.569C971.227 635.263 970.741 623.964 970.032 612.677C969.87 610.111 969.707 607.549 969.504 604.986C969.481 604.696 969.467 602.66 968.899 602.396C968.713 602.31 968.528 602.31 968.354 602.371Z" fill="#3264eb" stroke="none"/>
</g>
</g>
</g>
</svg>
