<?xml version="1.0" encoding="UTF-8" standalone="no"?>
<!DOCTYPE svg PUBLIC "-//W3C//DTD SVG 1.1//EN" "http://www.w3.org/Graphics/SVG/1.1/DTD/svg11.dtd">
<!-- Created with Vectornator (http://vectornator.io/) -->
<svg height="1024.0px" stroke-miterlimit="10" style="fill-rule:nonzero;clip-rule:evenodd;stroke-linecap:round;stroke-linejoin:round;" version="1.1" viewBox="0 0 1024 1024" width="1024.0px" xml:space="preserve" xmlns="http://www.w3.org/2000/svg" xmlns:xlink="http://www.w3.org/1999/xlink">
<defs/>
<g id="Layer-1">
<path d="M460.743 71.5997C250.27 94.4772 80.9768 263.77 58.0993 469.668C35.2219 684.716 158.76 876.886 346.355 950.094C360.082 954.67 373.808 945.519 373.808 927.217L373.808 854.009C373.808 854.009 355.506 858.584 332.629 858.584C268.572 858.584 241.119 803.678 236.544 771.65C231.968 753.348 222.817 739.622 209.091 725.895C195.364 721.32 190.789 721.32 190.789 716.744C190.789 707.593 204.515 707.593 209.091 707.593C236.544 707.593 259.421 739.622 268.572 753.348C291.449 789.952 318.902 799.103 332.629 799.103C350.931 799.103 364.657 794.527 373.808 789.952C378.384 757.924 392.11 725.895 419.563 707.593C314.327 684.716 236.544 625.234 236.544 524.573C236.544 474.243 259.421 423.913 291.449 387.309C286.874 378.158 282.298 355.28 282.298 323.252C282.298 304.95 282.298 277.497 296.025 250.044C296.025 250.044 360.082 250.044 424.139 309.525C447.016 300.374 479.045 295.799 511.073 295.799C543.101 295.799 575.13 300.374 602.583 309.525C662.064 250.044 730.697 250.044 730.697 250.044C739.848 277.497 739.848 304.95 739.848 323.252C739.848 359.856 735.272 378.158 730.697 387.309C762.725 423.913 785.603 469.668 785.603 524.573C785.603 625.234 707.819 684.716 602.583 707.593C630.036 730.471 648.338 771.65 648.338 812.829L648.338 931.792C648.338 945.519 662.064 959.245 680.366 954.67C849.659 886.037 968.622 721.32 968.622 529.149C968.622 254.619 735.272 39.5713 460.743 71.5997Z" fill="#02123e" fill-rule="nonzero" opacity="1" stroke="none"/>
</g>
</svg>
