<?xml version="1.0" encoding="UTF-8" standalone="no"?>
<!DOCTYPE svg PUBLIC "-//W3C//DTD SVG 1.1//EN" "http://www.w3.org/Graphics/SVG/1.1/DTD/svg11.dtd">
<!-- Created with Vectornator (http://vectornator.io/) -->
<svg height="1024.0px" stroke-miterlimit="10" style="fill-rule:nonzero;clip-rule:evenodd;stroke-linecap:round;stroke-linejoin:round;" version="1.1" viewBox="0 0 1024 1024" width="1024.0px" xml:space="preserve" xmlns="http://www.w3.org/2000/svg" xmlns:xlink="http://www.w3.org/1999/xlink">
<defs/>
<g id="Layer-1">
<path d="M867.466 76.7353L156.534 76.7353C113.007 76.7353 76.7353 113.007 76.7353 156.534L76.7353 867.466C76.7353 910.993 113.007 947.265 156.534 947.265L867.466 947.265C910.993 947.265 947.265 910.993 947.265 867.466L947.265 156.534C947.265 113.007 910.993 76.7353 867.466 76.7353ZM330.64 802.176L185.551 802.176L185.551 403.184L330.64 403.184L330.64 802.176ZM258.096 356.03L258.096 356.03C214.569 356.03 185.551 327.013 185.551 290.74C185.551 250.841 214.569 221.824 258.096 221.824C301.622 221.824 330.64 250.841 330.64 287.113C330.64 327.013 301.622 356.03 258.096 356.03ZM838.449 802.176L693.36 802.176L693.36 584.544C693.36 526.509 653.461 512 642.579 512C631.698 512 584.544 519.254 584.544 584.544C584.544 591.799 584.544 802.176 584.544 802.176L439.456 802.176L439.456 403.184L584.544 403.184L584.544 461.219C606.307 428.574 642.579 403.184 711.496 403.184C780.413 403.184 838.449 457.592 838.449 584.544L838.449 802.176Z" fill="#02123e" fill-rule="nonzero" opacity="1" stroke="none"/>
</g>
</svg>
