<?xml version="1.0" encoding="UTF-8" standalone="no"?>
<!DOCTYPE svg PUBLIC "-//W3C//DTD SVG 1.1//EN" "http://www.w3.org/Graphics/SVG/1.1/DTD/svg11.dtd">
<!-- Created with Vectornator (http://vectornator.io/) -->
<svg height="1640.0px" stroke-miterlimit="10" style="fill-rule:nonzero;clip-rule:evenodd;stroke-linecap:round;stroke-linejoin:round;" version="1.1" viewBox="0 0 1640 1640" width="1640.0px" xml:space="preserve" xmlns="http://www.w3.org/2000/svg" xmlns:xlink="http://www.w3.org/1999/xlink">
<defs/>
<clipPath id="ArtboardFrame">
<rect height="1640" width="1640" x="0" y="0"/>
</clipPath>
<g clip-path="url(#ArtboardFrame)" id="Layer-3">
<g opacity="1">
<path d="M34.1987 908.558C71.1478 1133.95 315.047 1061.8 315.047 1061.8C315.047 1061.8 323.174 1280.28 525.938 1327.12C728.702 1373.96 824.552 1223.45 824.552 1223.45C824.552 1223.45 938.749 1338.07 1146.8 1391.94C1443.68 1468.81 1403.77 1061.8 1403.77 1061.8C1403.77 1061.8 1560.52 1153.32 1606.39 908.558C1652.27 663.798 1403.77 544.9 1403.77 544.9C1403.77 544.9 1449.26 365.931 1319.2 273.763C1123.92 135.381 881.753 447.747 881.753 447.747C881.753 447.747 696.033 183.19 433.532 273.763C171.032 364.336 192.794 597.138 192.794 597.138C192.794 597.138-9.75833 640.416 34.1987 908.558Z" fill="#e6faff" fill-rule="nonzero" stroke="none"/>
<path d="M1215.28 208.844C1157.83 210.554 1102.28 236.443 1055 267.594C1044.44 274.548 1034.14 281.866 1024.06 289.5C1011.82 298.777 999.931 308.517 988.312 318.563C964.169 339.437 941.39 361.933 919.875 385.5C912.708 393.351 905.68 401.327 898.844 409.469C896.791 411.913 894.792 414.396 892.781 416.875C892.353 416.29 891.934 415.706 891.5 415.125C889.761 412.799 887.986 410.5 886.188 408.219C880.843 401.439 875.289 394.8 869.594 388.312C843.18 358.226 813.627 330.651 781.375 306.906C752.21 285.434 720.896 266.819 687.438 252.844C639.515 232.827 587.619 222.79 535.656 225.875C489.106 228.639 443.995 241.988 401.75 261.344C352.398 283.955 307.781 315.811 272.906 357.625C243.239 393.195 221.471 434.83 205.5 478.156C193.95 509.489 185.471 542.06 181.719 575.281C173.43 578.568 165.272 582.249 157.438 586.5C127.848 602.556 102.103 625.059 82.0313 652.062C66.1557 673.421 53.7479 697.243 43.6563 721.812C28.731 758.15 19.0229 796.513 16.3438 835.75C14.1793 867.449 16.5225 899.213 21.375 930.562C21.0454 933.088 21.0648 935.052 21.9063 935.438C26.1481 960.503 33.1018 985.151 44.875 1007.78C52.4452 1022.33 61.9397 1035.91 73.3438 1047.72C100.133 1075.45 136.45 1091.71 174.188 1097.88C203.383 1102.64 233.196 1102.48 262.5 1098.69C272.082 1097.45 281.62 1095.8 291.063 1093.75C294.081 1093.09 297.1 1092.42 300.094 1091.66C300.986 1091.43 301.862 1091.18 302.75 1090.94C302.859 1092.5 303.011 1094.06 303.156 1095.62C303.644 1100.88 304.291 1106.12 305.063 1111.34C308.26 1133 313.478 1154.41 320.562 1175.12C332.229 1209.24 349.229 1241.75 372.219 1269.62C388.259 1289.07 407.16 1306.13 428.281 1319.91C445.757 1331.31 464.677 1340.45 484.375 1347.31C500.799 1353.03 517.75 1357.15 534.875 1360.12C572.796 1366.72 611.872 1367.05 649.625 1359.16C676.547 1353.53 702.535 1343.75 726.531 1330.31C751.061 1316.58 773.511 1299.13 792.969 1278.84C799.4 1272.14 805.505 1265.1 811.188 1257.75C812.217 1256.42 813.191 1255.04 814.188 1253.69C814.575 1254.06 814.953 1254.44 815.344 1254.81C817.022 1256.4 818.723 1257.96 820.438 1259.5C825.685 1264.23 831.07 1268.8 836.531 1273.28C856.521 1289.67 877.624 1304.7 899.375 1318.66C959.856 1357.46 1025.78 1387.85 1094.31 1409.38C1133.14 1421.57 1173.14 1432.41 1214.22 1430.66C1229.06 1430.02 1243.87 1427.72 1258.09 1423.37C1267.09 1420.62 1275.85 1417.05 1284.19 1412.69C1329.16 1389.13 1356.77 1344.68 1376.44 1299.44C1380.27 1290.63 1383.84 1281.68 1387.12 1272.66C1391.5 1260.63 1395.4 1248.42 1398.81 1236.09C1403.19 1220.3 1406.75 1204.27 1409.56 1188.12C1414.54 1159.55 1417.11 1130.59 1417.94 1101.59C1425.77 1103.99 1433.72 1105.98 1441.84 1107C1463.69 1109.73 1486.09 1106.75 1505.91 1096.91C1516.86 1091.46 1526.79 1084.15 1535.56 1075.66C1548.45 1063.18 1558.85 1048.34 1567.78 1032.84C1576.13 1018.35 1583.26 1003.16 1589.59 987.688C1600.3 961.498 1608.58 934.365 1614.72 906.75C1618.26 890.796 1621.2 874.695 1622.94 858.438C1625.77 831.917 1625.54 805.025 1621.62 778.625C1619.26 762.691 1615.58 746.953 1610.62 731.625C1590.19 668.355 1548.49 613.712 1498.06 571.125C1481.09 556.795 1463.22 543.601 1444.41 531.781C1438.18 527.868 1431.84 524.122 1425.41 520.562C1423.24 519.366 1421.07 518.169 1418.87 517.031C1418.47 516.824 1418.06 516.642 1417.66 516.438C1417.79 515.727 1417.96 515.024 1418.09 514.312C1419.87 504.794 1421.24 495.192 1422.25 485.562C1425.23 457.191 1425.16 428.397 1421.19 400.125C1417.79 375.994 1411.48 352.192 1401.47 329.938C1394.47 314.365 1385.67 299.586 1375.16 286.125C1357.1 263.006 1333.96 243.677 1308 230.031C1294.54 222.958 1280.25 217.484 1265.47 213.906C1257.1 211.88 1248.57 210.453 1240 209.625C1231.73 208.827 1223.49 208.599 1215.28 208.844ZM1205.28 268.188C1215.02 268.523 1224.73 269.575 1234.31 271.438C1249.44 274.379 1264.17 279.321 1278.06 286C1306.26 299.555 1331.43 319.876 1350.69 344.531C1361.01 357.748 1369.65 372.24 1376.53 387.531C1387.43 411.763 1393.84 437.886 1396.75 464.25C1399.63 490.342 1399.19 516.897 1395.66 542.906C1395.07 547.201 1394.42 551.49 1393.62 555.75C1393.38 557.074 1393.12 558.37 1392.84 559.688C1392.75 560.112 1392.66 560.545 1392.56 560.969C1392.54 561.081 1392.53 561.2 1392.5 561.312C1392.49 561.344 1392.48 561.375 1392.47 561.406C1392.21 562.483 1391.93 563.538 1391.72 564.625C1391.44 566.062 1391.21 567.517 1391.03 568.969C1390.94 569.694 1390.92 570.426 1390.91 571.156C1390.89 572.057 1390.96 573.287 1391.53 574.062C1392.06 574.776 1393.59 575.226 1394.25 575.562C1395.96 576.439 1397.68 577.333 1399.38 578.25C1405.29 581.454 1411.11 584.855 1416.84 588.375C1434.68 599.321 1451.75 611.522 1467.94 624.781C1521.24 668.44 1565.79 724.922 1586.47 791.344C1590.79 805.239 1594.05 819.449 1596.19 833.844C1598.18 847.269 1599.17 860.865 1599.22 874.438C1599.29 896.756 1596.57 918.821 1591.91 940.625C1590.19 948.65 1588.26 956.651 1585.97 964.531C1584.17 970.704 1582.18 976.857 1579.59 982.75C1572.72 998.385 1561.47 1012.96 1548.56 1024.03C1543.15 1028.67 1537.29 1032.78 1531.06 1036.25C1523.59 1040.41 1515.59 1043.61 1507.31 1045.75C1484.73 1051.59 1460.75 1049.38 1438.72 1042.28C1433.53 1040.61 1428.44 1038.68 1423.47 1036.44C1421.73 1035.65 1419.98 1034.81 1418.28 1033.94C1417.71 1033.64 1417.13 1033.34 1416.56 1033.03C1415.83 1032.63 1415.2 1032.04 1414.31 1032.56C1413.89 1032.81 1413.43 1033.08 1413.09 1033.44C1411.99 1034.62 1410.83 1035.77 1410 1037.16C1407.1 1041.98 1404.24 1046.86 1401.94 1052C1398.91 1058.77 1396.43 1065.8 1394.03 1072.81C1393.02 1075.75 1392.42 1078.78 1391.72 1081.81C1391.46 1082.93 1391.31 1084.08 1391.16 1085.22C1390.71 1088.41 1391.28 1091.66 1391.5 1094.84C1391.79 1098.95 1392.04 1103.05 1392.22 1107.16C1392.85 1121.38 1392.94 1135.61 1392.59 1149.84C1391.87 1179.95 1389.1 1210.04 1383.38 1239.62C1381.74 1248.07 1379.76 1256.44 1377.44 1264.72C1375.06 1273.18 1372.31 1281.59 1368.44 1289.5C1357.53 1311.76 1340.11 1331.62 1319.75 1345.69C1312.57 1350.65 1304.93 1354.93 1296.97 1358.5C1252.06 1378.62 1201.41 1374.07 1155.06 1361.91C1071.82 1340.06 991.675 1305.36 919.406 1258.53C899.267 1245.48 879.704 1231.5 861.094 1216.34C854.982 1211.37 848.966 1206.26 843.125 1200.97C841.48 1199.48 839.858 1197.97 838.25 1196.44C837.734 1195.95 836.854 1194.74 836.094 1194.47C834.906 1194.04 833.51 1195.63 832.875 1196.34C832.516 1196.75 832.172 1197.14 831.844 1197.56C831.376 1198.17 830.908 1198.81 830.469 1199.44C830.239 1199.77 830.031 1200.1 829.812 1200.44C829.772 1200.5 829.728 1200.57 829.688 1200.62C829.68 1200.64 829.664 1200.64 829.656 1200.66C829.636 1200.69 829.614 1200.72 829.594 1200.75C829.476 1200.92 829.369 1201.08 829.25 1201.25C828.869 1201.8 828.485 1202.34 828.094 1202.88C827.031 1204.33 825.926 1205.8 824.812 1207.22C823.904 1208.38 822.997 1209.52 822.062 1210.66C807.833 1227.97 791.051 1243.27 772.875 1256.34C746.37 1275.41 716.477 1289.67 684.906 1298.03C660.784 1304.42 635.818 1307.37 610.875 1307.19C589.85 1307.03 568.861 1304.71 548.25 1300.59C520.216 1294.99 492.949 1285.92 467.812 1272.19C444.538 1259.48 423.404 1242.97 405.406 1223.5C383.466 1199.76 366.467 1171.97 353.719 1142.34C343.188 1117.87 335.718 1091.96 331.156 1065.72C329.826 1058.07 328.752 1050.36 328.031 1042.62C327.958 1041.84 327.877 1041.07 327.813 1040.28C327.761 1039.65 327.732 1039.03 327.688 1038.41C327.609 1037.3 327.646 1034.16 326.813 1033.34C326.159 1032.7 324.43 1033.46 323.813 1033.62C323.532 1033.7 323.282 1033.77 323 1033.84C322.675 1033.93 322.357 1034.01 322.031 1034.09C321.467 1034.24 320.909 1034.39 320.344 1034.53C314.249 1036.05 308.085 1037.34 301.906 1038.47C277.521 1042.92 252.557 1044.92 227.781 1043.78C186.727 1041.9 145.166 1030.89 112.438 1005.12C105.043 999.303 98.1645 992.807 91.9375 985.75C82.2741 974.798 74.1834 962.509 67.625 949.469C57.4553 929.248 51.2035 907.427 47.1875 885.219C47.2647 883.809 47.0541 882.858 46.625 882.375C46.5856 882.146 46.5389 881.917 46.5 881.688C46.4569 881.668 46.3896 881.732 46.3438 881.719C40.9099 847.092 38.4455 811.821 42.125 776.875C43.182 766.837 44.7386 756.865 47.0313 747.031C48.5428 740.548 50.2547 733.977 52.9688 727.875C56.8383 719.175 62.117 711.052 67.75 703.406C79.592 687.332 94.016 673.175 110.031 661.281C124.758 650.345 140.883 641.265 157.844 634.281C163.365 632.008 169.003 629.978 174.719 628.25C176.478 627.718 178.218 627.203 180 626.75C180.948 626.509 182.053 626.436 182.875 625.844C184.081 624.974 185.143 623.692 185.969 622.5C187.108 620.855 188.261 619.195 189.219 617.438C191.324 613.577 193.395 609.686 195.156 605.656C197.443 600.424 199.465 595.079 201.344 589.688C202.506 586.351 203.404 582.923 204.281 579.5C204.68 577.945 204.926 576.365 205.188 574.781C205.713 571.601 205.274 568.728 205.156 565.562C205.046 562.617 205.01 559.667 205.031 556.719C205.086 549.083 205.505 541.446 206.219 533.844C208.112 513.661 212.063 493.658 218.719 474.5C218.919 473.963 219.116 473.414 219.313 472.875C219.283 472.95 219.364 472.767 219.406 472.656C219.417 472.625 219.426 472.593 219.438 472.562C220.44 470.007 221.441 467.476 222.563 464.969C228.652 451.355 236.584 438.534 245.313 426.469C261.539 404.038 281.15 384.131 302.844 366.969C329.269 346.063 358.742 329.246 389.656 315.938C414.496 305.244 440.291 296.514 466.813 291.094C500.069 284.297 534.295 282.646 568.031 286.469C651.46 295.923 727.524 337.614 790.156 392.062C812.197 411.223 832.841 432.062 851.688 454.375C856.493 460.064 861.186 465.848 865.688 471.781C866.717 473.139 867.749 474.527 868.75 475.906C869.132 476.434 869.612 477.435 870.406 477.406C871.25 477.376 872.024 476.67 872.594 476.125C874.087 474.695 875.131 473.146 876.406 471.562C881.221 465.584 886.172 459.721 891.219 453.938C910.265 432.111 930.506 411.253 951.812 391.625C989.729 356.696 1031.07 324.706 1077.06 301.094C1107.99 285.216 1141.39 273.145 1176.09 269.312C1185.79 268.242 1195.54 267.852 1205.28 268.188Z" fill="#123ba8" stroke="none"/>
</g>
</g>
<g id="Layer-1">
<g opacity="1">
<path d="M593.006 412.48C583.347 412.729 573.684 414.331 564.218 417.606C557.402 419.964 550.885 423.149 544.791 427.004C535.04 433.172 526.429 441.039 518.92 449.774C502.621 468.731 491.056 491.381 481.05 514.128C467.968 543.866 457.272 574.692 448.585 605.988C433.019 662.071 424.338 720.183 425.258 778.454C425.691 805.935 428.201 833.421 433.337 860.433C436.21 875.542 439.916 890.509 444.611 905.156C449.79 921.32 456.262 937.02 466.099 950.957C471.951 959.247 478.873 966.795 486.826 973.114C492.266 977.435 498.173 981.168 504.433 984.183C509.185 986.472 514.128 988.342 519.198 989.792C550.79 998.826 584.246 990.763 613.436 977.645C645.07 963.429 671.959 941.274 699.111 920.126C704.22 921.586 715.115 899.095 723.46 869.905C731.805 840.716 734.437 815.871 729.329 814.41C724.319 817.863 719.288 821.299 714.36 824.867C702.61 833.373 690.969 842.064 678.682 849.791C657.231 863.281 633.573 874.208 608.57 879.006C597.101 881.207 585.331 882.063 573.69 880.9C565.599 880.092 557.608 878.281 549.992 875.422C544.253 873.267 538.745 870.523 533.573 867.231C516.436 856.322 503.628 839.824 494.942 821.635C489.837 810.944 486.139 799.587 482.852 788.223C479.699 777.325 477.081 766.27 474.958 755.127C473.203 745.912 471.781 736.635 470.649 727.323C469.245 715.768 468.305 704.167 467.808 692.537C467.183 677.913 467.265 663.247 468.049 648.631C468.989 631.125 470.879 613.623 474.215 596.405C475.163 591.516 476.221 586.638 477.503 581.825C478.618 577.635 479.884 573.316 481.942 569.474C486.066 561.772 491.445 554.737 497.598 548.543C502.809 543.297 508.665 538.67 515.001 534.855C519.881 531.916 525.084 529.458 530.453 527.556C562.474 516.212 597.317 525.179 626.511 540.204C652.238 553.444 674.979 571.81 695.378 592.189C700.571 594.009 713.225 571.436 723.627 541.764C734.03 512.092 738.255 486.567 733.062 484.746C715.724 467.135 696.751 451.046 675.617 438.147C651.056 423.156 621.984 411.732 593.006 412.48Z" fill="#3264eb" stroke="none"/>
</g>
<g opacity="1">
<path d="M1072.5 647.517C1062.84 647.766 1053.17 649.368 1043.71 652.643C1036.89 655.001 1030.36 658.186 1024.26 662.04C1014.51 668.209 1005.92 676.076 998.41 684.811C982.111 703.768 970.546 726.436 960.54 749.183C947.458 778.922 936.762 809.729 928.075 841.025C912.509 897.107 903.828 955.239 904.748 1013.51C905.181 1040.99 907.69 1068.46 912.827 1095.47C915.7 1110.58 919.388 1125.55 924.082 1140.19C929.262 1156.36 935.734 1172.06 945.57 1185.99C951.422 1194.28 958.345 1201.85 966.298 1208.17C971.737 1212.49 977.663 1216.2 983.923 1219.22C988.675 1221.51 993.618 1223.38 998.688 1224.83C1030.28 1233.86 1063.74 1225.8 1092.93 1212.68C1124.56 1198.47 1151.45 1176.31 1178.6 1155.16C1183.71 1156.62 1194.61 1134.15 1202.95 1104.96C1211.3 1075.77 1213.93 1050.93 1208.82 1049.47C1203.81 1052.92 1198.78 1056.35 1193.85 1059.92C1182.1 1068.43 1170.46 1077.1 1158.17 1084.83C1136.72 1098.32 1113.06 1109.24 1088.06 1114.04C1076.59 1116.24 1064.82 1117.1 1053.18 1115.94C1045.09 1115.13 1037.1 1113.34 1029.48 1110.48C1023.74 1108.32 1018.23 1105.56 1013.06 1102.27C995.926 1091.36 983.099 1074.88 974.414 1056.69C969.308 1046 965.629 1034.64 962.342 1023.28C959.189 1012.38 956.571 1001.33 954.448 990.182C952.693 980.967 951.271 971.69 950.139 962.379C948.735 950.823 947.795 939.203 947.298 927.574C946.673 912.95 946.755 898.302 947.539 883.686C948.479 866.181 950.369 848.679 953.705 831.46C954.653 826.572 955.711 821.693 956.993 816.881C958.108 812.69 959.374 808.371 961.431 804.53C965.556 796.827 970.935 789.793 977.088 783.598C982.299 778.353 988.155 773.707 994.491 769.892C999.371 766.953 1004.56 764.514 1009.92 762.611C1041.94 751.267 1076.81 760.216 1106 775.241C1131.73 788.481 1154.47 806.865 1174.87 827.244C1180.06 829.065 1192.71 806.473 1203.12 776.801C1213.52 747.129 1217.74 721.603 1212.55 719.783C1195.21 702.172 1176.24 686.083 1155.11 673.184C1130.55 658.193 1101.47 646.769 1072.5 647.517Z" fill="#3264eb" stroke="none"/>
</g>
</g>
</svg>
