<?xml version="1.0" encoding="UTF-8" standalone="no"?>
<!DOCTYPE svg PUBLIC "-//W3C//DTD SVG 1.1//EN" "http://www.w3.org/Graphics/SVG/1.1/DTD/svg11.dtd">
<!-- Created with Vectornator (http://vectornator.io/) -->
<svg height="1024.0px" stroke-miterlimit="10" style="fill-rule:nonzero;clip-rule:evenodd;stroke-linecap:round;stroke-linejoin:round;" version="1.1" viewBox="0 0 1024 1024" width="1024.0px" xml:space="preserve" xmlns="http://www.w3.org/2000/svg" xmlns:xlink="http://www.w3.org/1999/xlink">
<defs/>
<g id="Layer-1">
<path d="M663.304 171.565L360.696 171.565L360.696 95.913C360.696 85.473 352.223 77 341.783 77L285.043 77C274.603 77 266.13 85.473 266.13 95.913L266.13 833.522C266.13 903.84 332.232 947 379.609 947L663.304 947C715.448 947 757.87 904.578 757.87 852.435L757.87 266.13C757.87 213.987 715.448 171.565 663.304 171.565ZM398.522 871.348C377.642 871.348 360.696 854.402 360.696 833.522C360.696 812.642 377.642 795.696 398.522 795.696C419.402 795.696 436.348 812.642 436.348 833.522C436.348 854.402 419.402 871.348 398.522 871.348ZM398.522 757.87C377.642 757.87 360.696 740.923 360.696 720.043C360.696 699.163 377.642 682.217 398.522 682.217C419.402 682.217 436.348 699.163 436.348 720.043C436.348 740.923 419.402 757.87 398.522 757.87ZM398.522 644.391C377.642 644.391 360.696 627.445 360.696 606.565C360.696 585.685 377.642 568.739 398.522 568.739C419.402 568.739 436.348 585.685 436.348 606.565C436.348 627.445 419.402 644.391 398.522 644.391ZM512 871.348C491.12 871.348 474.174 854.402 474.174 833.522C474.174 812.642 491.12 795.696 512 795.696C532.88 795.696 549.826 812.642 549.826 833.522C549.826 854.402 532.88 871.348 512 871.348ZM512 757.87C491.12 757.87 474.174 740.923 474.174 720.043C474.174 699.163 491.12 682.217 512 682.217C532.88 682.217 549.826 699.163 549.826 720.043C549.826 740.923 532.88 757.87 512 757.87ZM512 644.391C491.12 644.391 474.174 627.445 474.174 606.565C474.174 585.685 491.12 568.739 512 568.739C532.88 568.739 549.826 585.685 549.826 606.565C549.826 627.445 532.88 644.391 512 644.391ZM625.478 871.348C604.598 871.348 587.652 854.402 587.652 833.522C587.652 812.642 604.598 795.696 625.478 795.696C646.358 795.696 663.304 812.642 663.304 833.522C663.304 854.402 646.358 871.348 625.478 871.348ZM625.478 757.87C604.598 757.87 587.652 740.923 587.652 720.043C587.652 699.163 604.598 682.217 625.478 682.217C646.358 682.217 663.304 699.163 663.304 720.043C663.304 740.923 646.358 757.87 625.478 757.87ZM625.478 644.391C604.598 644.391 587.652 627.445 587.652 606.565C587.652 585.685 604.598 568.739 625.478 568.739C646.358 568.739 663.304 585.685 663.304 606.565C663.304 627.445 646.358 644.391 625.478 644.391ZM663.304 474.174C663.304 494.978 646.283 512 625.478 512L398.522 512C377.717 512 360.696 494.978 360.696 474.174L360.696 322.87C360.696 302.065 377.717 285.043 398.522 285.043L625.478 285.043C646.283 285.043 663.304 302.065 663.304 322.87L663.304 474.174Z" fill="#02123e" fill-rule="nonzero" opacity="1" stroke="none"/>
</g>
</svg>
