<?xml version="1.0" encoding="UTF-8" standalone="no"?>
<!DOCTYPE svg PUBLIC "-//W3C//DTD SVG 1.1//EN" "http://www.w3.org/Graphics/SVG/1.1/DTD/svg11.dtd">
<!-- Created with Vectornator (http://vectornator.io/) -->
<svg height="1024.0px" stroke-miterlimit="10" style="fill-rule:nonzero;clip-rule:evenodd;stroke-linecap:round;stroke-linejoin:round;" version="1.1" viewBox="0 0 1024 1024" width="1024.0px" xml:space="preserve" xmlns="http://www.w3.org/2000/svg" xmlns:xlink="http://www.w3.org/1999/xlink">
<defs/>
<g id="Layer-1">
<g opacity="1">
<path d="M852.723 774.332L968.566 774.332L703.783 526.098L703.783 890.174L780.002 813.954L838.803 942.185L911.826 908.69L850.681 775.353L852.723 774.332Z" fill="none" opacity="1" stroke="#02123e" stroke-linecap="round" stroke-linejoin="round" stroke-width="37.0978"/>
<path d="M533.566 469.359L684.378 469.359C682.789 414.795 674.506 363.294 661.058 318.054L533.566 318.054L533.566 469.359ZM533.566 150.201L533.566 280.228L648.103 280.228C620.395 209.891 579.467 160.887 533.566 150.201ZM533.566 826.342C579.467 815.638 620.395 766.653 648.103 696.315L533.566 696.315L533.566 826.342ZM533.566 658.489L661.058 658.489C674.487 613.249 682.789 561.749 684.378 507.185L533.566 507.185L533.566 658.489ZM703.783 658.489L703.783 646.517C702.799 650.47 702.005 654.612 700.946 658.489L703.783 658.489ZM703.272 507.185C702.97 518.854 721.164 530.278 720.332 541.607L820.892 635.888C839.9 596.568 851.588 553.125 854.142 507.185L703.272 507.185ZM625.218 166.637C650.94 195.517 672.803 234.156 689.239 280.228L783.52 280.228C743.273 228.331 688.501 188.443 625.218 166.637ZM809.015 318.054L700.946 318.054C713.334 363.729 720.767 414.832 722.185 469.359L854.123 469.359C851.097 414.454 835.134 363.03 809.015 318.054ZM703.783 696.315L689.239 696.315C672.803 742.387 650.959 781.027 625.218 809.907C653.304 800.224 679.574 786.795 703.783 770.53L703.783 696.315ZM495.739 318.054L368.247 318.054C354.818 363.294 346.516 414.795 344.927 469.359L495.739 469.359L495.739 318.054ZM495.739 507.185L344.927 507.185C346.516 561.749 354.799 613.249 368.247 658.489L495.739 658.489L495.739 507.185ZM495.739 150.201C449.837 160.887 408.91 209.891 381.202 280.228L495.739 280.228L495.739 150.201ZM495.739 826.342L495.739 696.315L381.202 696.315C408.91 766.653 449.837 815.657 495.739 826.342ZM220.29 658.489L328.378 658.489C315.99 612.814 308.557 561.711 307.139 507.185L175.182 507.185C178.208 562.089 194.171 613.514 220.29 658.489ZM404.087 809.907C378.365 781.027 356.502 742.387 340.066 696.315L245.785 696.315C286.032 748.213 340.804 788.1 404.087 809.907ZM404.087 166.637C340.804 188.462 286.032 228.35 245.785 280.228L340.066 280.228C356.502 234.156 378.365 195.517 404.087 166.637ZM175.182 469.359L307.12 469.359C308.538 414.832 315.971 363.729 328.359 318.054L220.29 318.054C194.171 363.03 178.208 414.454 175.182 469.359Z" fill="#02123e" fill-rule="nonzero" opacity="1" stroke="none"/>
<path d="M703.783 815.354C648.065 847.695 583.591 866.533 514.652 866.533C306.079 866.533 136.392 696.845 136.392 488.272C136.392 279.699 306.079 110.011 514.652 110.011C723.226 110.011 892.913 279.699 892.913 488.272C892.913 551.309 877.197 610.677 849.811 662.99L878.577 689.96C911.77 630.214 930.739 561.465 930.739 488.272C930.739 258.478 744.446 72.1848 514.652 72.1848C284.859 72.1848 98.5655 258.478 98.5655 488.272C98.5655 718.065 284.859 904.359 514.652 904.359C582.777 904.359 647.025 887.885 703.783 858.854L703.783 815.354Z" fill="#02123e" fill-rule="nonzero" opacity="1" stroke="none"/>
</g>
</g>
</svg>
